HIERARCHY
ROOT joint_0
{
	OFFSET 0.000000 0.000000 0.000000
	CHANNELS 6 Xposition Yposition Zposition Zrotation Yrotation Xrotation 
	JOINT joint_1
	{
		OFFSET 7.566162 2.250183 114.799927
		CHANNELS 3 Zrotation Yrotation Xrotation
		JOINT joint_2
		{
			OFFSET -5.201660 -0.414001 104.936035
			CHANNELS 3 Zrotation Yrotation Xrotation
			JOINT joint_3
			{
				OFFSET -6.923584 -0.419739 104.718018
				CHANNELS 3 Zrotation Yrotation Xrotation
				JOINT joint_4
				{
					OFFSET 3.108887 2.881104 149.449951
					CHANNELS 3 Zrotation Yrotation Xrotation
					JOINT joint_5
					{
						OFFSET 19.988770 5.920349 90.786987
						CHANNELS 3 Zrotation Yrotation Xrotation
						End Site
						{
							OFFSET 0.000000 0.000000 0.000000
						}
					}
				}
				JOINT joint_6
				{
					OFFSET 9.283936 -30.015930 84.410034
					CHANNELS 3 Zrotation Yrotation Xrotation
					JOINT joint_7
					{
						OFFSET 47.243164 -155.716736 -23.241089
						CHANNELS 3 Zrotation Yrotation Xrotation
						JOINT joint_8
						{
							OFFSET 31.323730 -15.356873 -268.798950
							CHANNELS 3 Zrotation Yrotation Xrotation
							JOINT joint_9
							{
								OFFSET 28.122314 -2.114624 -262.450012
								CHANNELS 3 Zrotation Yrotation Xrotation
								End Site
								{
									OFFSET 0.000000 0.000000 0.000000
								}
							}
						}
					}
				}
				JOINT joint_10
				{
					OFFSET -5.580566 33.311218 83.498047
					CHANNELS 3 Zrotation Yrotation Xrotation
					JOINT joint_11
					{
						OFFSET -22.773438 160.515381 -27.138062
						CHANNELS 3 Zrotation Yrotation Xrotation
						JOINT joint_12
						{
							OFFSET 27.004395 30.848877 -267.937988
							CHANNELS 3 Zrotation Yrotation Xrotation
							JOINT joint_13
							{
								OFFSET 32.625000 14.824585 -261.518005
								CHANNELS 3 Zrotation Yrotation Xrotation
								End Site
								{
									OFFSET 0.000000 0.000000 0.000000
								}
							}
						}
					}
				}
			}
		}
	}
	JOINT joint_14
	{
		OFFSET 20.623535 -83.447632 -106.174011
		CHANNELS 3 Zrotation Yrotation Xrotation
		JOINT joint_15
		{
			OFFSET 0.661865 -23.563843 -459.915039
			CHANNELS 3 Zrotation Yrotation Xrotation
			JOINT joint_16
			{
				OFFSET -23.461670 -28.727966 -444.760971
				CHANNELS 3 Zrotation Yrotation Xrotation
				JOINT joint_17
				{
					OFFSET 178.992920 54.047363 -80.113001
					CHANNELS 3 Zrotation Yrotation Xrotation
					End Site
					{
						OFFSET 0.000000 0.000000 0.000000
					}
				}
			}
		}
	}
	JOINT joint_18
	{
		OFFSET -19.571533 84.686279 -105.380005
		CHANNELS 3 Zrotation Yrotation Xrotation
		JOINT joint_19
		{
			OFFSET -22.949951 3.639404 -459.933044
			CHANNELS 3 Zrotation Yrotation Xrotation
			JOINT joint_20
			{
				OFFSET -33.690674 4.092651 -445.010971
				CHANNELS 3 Zrotation Yrotation Xrotation
				JOINT joint_21
				{
					OFFSET 187.419678 18.953857 -76.759001
					CHANNELS 3 Zrotation Yrotation Xrotation
					End Site
					{
						OFFSET 0.000000 0.000000 0.000000
					}
				}
			}
		}
	}
}
MOTION
Frames: 10
Frame Time: 0.016667
-2694.550293 851.163147 1092.869995 -10.708186 0.494569 0.074734 -2.168947 9.310902 0.955788 0.915937 -1.509913 -0.393041 1.504550 1.865479 0.091083 0.307417 -3.579997 -0.184800 0.000000 0.000000 0.000000 4.118174 7.508580 -5.746704 -2.683592 7.278653 -6.100033 3.754285 -53.578652 39.782219 0.000000 0.000000 0.000000 2.039403 5.666061 0.165900 9.968453 7.648123 9.226752 -1.083107 -60.140020 -29.036198 0.000000 0.000000 0.000000 3.283204 -16.154042 -0.380887 -3.279602 41.498259 -4.539350 -8.215229 -5.880764 -1.008868 0.000000 0.000000 0.000000 0.536912 -5.700260 13.286594 1.494279 61.749893 -10.453702 -9.417758 -0.408459 -3.320322 0.000000 0.000000 0.000000 
-2684.632324 852.849915 1095.870972 -10.918877 -0.099050 0.433493 -2.252709 9.621743 0.796724 1.041583 -1.596144 -0.423780 1.672344 1.968396 0.092110 0.322396 -3.684184 -0.197912 0.000000 0.000000 0.000000 3.895027 7.237831 -5.694972 -2.308004 7.233257 -5.344027 3.952721 -53.181797 38.143239 0.000000 0.000000 0.000000 1.868931 5.957378 0.012833 9.806668 7.904799 8.813524 -1.120467 -59.770489 -29.020450 0.000000 0.000000 0.000000 2.939015 -14.590311 -0.595013 -3.202494 40.678430 -4.990495 -8.277552 -5.481963 -1.162793 0.000000 0.000000 0.000000 1.311610 -7.001195 13.646435 1.928939 63.116962 -9.878973 -7.562881 -1.491223 -2.312968 0.000000 0.000000 0.000000 
-2675.740234 854.523560 1098.925049 -11.497279 -0.459470 0.665004 -2.223387 9.758816 0.540058 1.100477 -1.638790 -0.360467 1.716213 2.022419 0.020526 0.344466 -3.804604 -0.246101 0.000000 0.000000 0.000000 4.205954 7.226483 -5.587469 -2.137994 7.253592 -5.266961 3.983892 -52.764680 37.060638 0.000000 0.000000 0.000000 2.290388 6.091419 -0.122187 9.709415 8.002289 8.862090 -1.156370 -58.981774 -29.225661 0.000000 0.000000 0.000000 2.696208 -13.292006 -0.808244 -3.024281 39.648834 -5.217136 -8.136138 -5.046606 -1.260844 0.000000 0.000000 0.000000 2.274729 -8.421557 14.139360 2.417305 63.447068 -9.319852 -5.705137 -2.465645 -1.457841 0.000000 0.000000 0.000000 
-2667.752686 856.443787 1102.209961 -12.305801 -0.640906 0.814701 -2.085430 9.787884 0.253880 1.130285 -1.662177 -0.251330 1.695064 2.054532 -0.086309 0.369213 -3.965875 -0.295315 0.000000 0.000000 0.000000 4.745602 7.323768 -5.438969 -2.036093 7.302082 -5.460433 3.958086 -52.440778 36.135672 0.000000 0.000000 0.000000 2.984039 6.179290 -0.232149 9.622745 8.028991 9.015818 -1.198844 -58.099733 -29.478081 0.000000 0.000000 0.000000 2.486507 -12.127363 -1.040176 -2.796011 38.314456 -5.312340 -7.824623 -4.596188 -1.310579 0.000000 0.000000 0.000000 3.386607 -9.920055 14.664632 2.970800 62.828580 -8.742557 -3.763951 -3.377502 -0.739805 0.000000 0.000000 0.000000 
-2660.795166 859.031738 1105.180054 -13.120259 -0.818146 0.940367 -1.862080 9.931254 0.026058 1.180622 -1.666733 -0.163093 1.678841 2.074447 -0.166244 0.390322 -4.088268 -0.335619 0.000000 0.000000 0.000000 5.051361 7.298326 -5.406656 -1.968772 7.225056 -5.729106 3.957098 -52.336272 35.442821 0.000000 0.000000 0.000000 3.348683 6.295296 -0.223407 9.658986 8.111310 9.045834 -1.164513 -57.638469 -29.880736 0.000000 0.000000 0.000000 2.321013 -11.176643 -1.378102 -2.554537 37.214702 -5.262404 -7.472388 -4.100765 -1.355692 0.000000 0.000000 0.000000 4.381938 -11.407324 14.989518 3.459389 61.581500 -8.037389 -2.155934 -4.285388 -0.238378 0.000000 0.000000 0.000000 
-2655.366699 862.620544 1107.727051 -13.848146 -1.081018 1.047220 -1.536741 10.387907 -0.077808 1.280698 -1.649600 -0.140644 1.703772 2.086458 -0.191923 0.409106 -4.150740 -0.372525 0.000000 0.000000 0.000000 4.878977 7.001476 -5.623923 -1.949323 6.918612 -6.013239 4.007409 -52.600500 35.077376 0.000000 0.000000 0.000000 3.037938 6.511581 0.014622 9.890149 8.336985 8.761032 -1.000699 -58.015327 -30.462445 0.000000 0.000000 0.000000 2.239643 -10.543440 -1.843498 -2.300548 36.677393 -5.040309 -7.132319 -3.500986 -1.428785 0.000000 0.000000 0.000000 5.190738 -12.893547 14.969761 3.861513 59.693354 -6.950292 -0.889008 -5.005710 0.119952 0.000000 0.000000 0.000000 
-2650.967285 866.877136 1109.958984 -14.610935 -1.352957 1.102720 -1.097374 10.987594 -0.069354 1.397839 -1.624281 -0.173084 1.746103 2.083415 -0.187236 0.423657 -4.170913 -0.398879 0.000000 0.000000 0.000000 4.469174 6.578486 -5.945668 -1.957437 6.477083 -6.371556 4.086505 -53.065320 34.929610 0.000000 0.000000 0.000000 2.403532 6.759967 0.376235 10.242558 8.620555 8.347379 -0.760319 -58.816294 -31.206816 0.000000 0.000000 0.000000 2.226660 -10.121680 -2.346050 -2.026427 36.396223 -4.705125 -6.775009 -2.876217 -1.500296 0.000000 0.000000 0.000000 5.830629 -14.210663 14.796532 4.220393 56.968687 -5.753911 0.046815 -5.328219 0.378507 0.000000 0.000000 0.000000 
-2646.224365 871.229797 1111.645996 -15.478258 -1.534739 1.125108 -0.596710 11.352939 -0.005461 1.489474 -1.593971 -0.226710 1.773995 2.064083 -0.169777 0.425252 -4.134241 -0.397987 0.000000 0.000000 0.000000 4.085339 6.244277 -6.126995 -1.909065 6.047653 -6.781339 4.203146 -53.394646 34.778844 0.000000 0.000000 0.000000 1.879320 6.898599 0.626159 10.622427 8.829234 8.145546 -0.512636 -59.317468 -32.157886 0.000000 0.000000 0.000000 2.204687 -9.705649 -2.827357 -1.768292 35.978654 -4.376869 -6.417815 -2.443102 -1.514672 0.000000 0.000000 0.000000 6.177874 -15.088151 14.740019 4.461447 53.543002 -5.101010 0.355540 -5.477553 0.475597 0.000000 0.000000 0.000000 
-2640.627197 875.359619 1112.791992 -16.421019 -1.553773 1.119690 -0.061929 11.261481 0.078246 1.544017 -1.544046 -0.276827 1.771329 2.027953 -0.137129 0.403951 -4.020985 -0.343300 0.000000 0.000000 0.000000 3.795144 6.095728 -6.053731 -1.786570 5.677879 -7.273376 4.354848 -53.417724 34.593182 0.000000 0.000000 0.000000 1.597473 6.824724 0.643783 11.024571 8.889574 8.399104 -0.273063 -59.169684 -33.443108 0.000000 0.000000 0.000000 2.117521 -9.237556 -3.313978 -1.560328 35.248984 -4.022549 -6.049520 -2.275080 -1.448304 0.000000 0.000000 0.000000 6.046135 -15.430551 14.982032 4.389345 49.182919 -5.381156 -0.232589 -5.570099 0.312819 0.000000 0.000000 0.000000 
-2634.685547 879.586487 1113.392944 -17.459860 -1.487775 1.082662 0.482588 10.942904 0.201290 1.594202 -1.493019 -0.336809 1.773561 1.976745 -0.093976 0.371079 -3.849305 -0.268045 0.000000 0.000000 0.000000 3.525961 6.037419 -5.857185 -1.607853 5.327804 -7.814183 4.546903 -53.317343 34.418212 0.000000 0.000000 0.000000 1.418435 6.628072 0.530957 11.472253 8.870385 8.892104 -0.012932 -58.708632 -34.958912 0.000000 0.000000 0.000000 2.017666 -8.772444 -3.804761 -1.370958 34.379050 -3.644999 -5.668103 -2.279597 -1.324279 0.000000 0.000000 0.000000 5.598478 -15.243658 15.324900 4.079387 43.894038 -6.102949 -1.098834 -5.289753 0.042612 0.000000 0.000000 0.000000 
